HIERARCHY
ROOT hip
{
	OFFSET 0.000000 0.000000 0.000000 
	CHANNELS 6 Xposition Yposition Zposition Xrotation Zrotation Yrotation
	JOINT abdomen
	{
		OFFSET 0.000000 3.402643 0.000000 
		CHANNELS 3 Xrotation Zrotation Yrotation
		JOINT chest
		{
			OFFSET 0.000000 8.438565 -0.680529 
			CHANNELS 3 Xrotation Zrotation Yrotation
			JOINT neck
			{
				OFFSET 0.000000 10.207942 -0.272212 
				CHANNELS 3 Xrotation Zrotation Yrotation
				JOINT head
				{
					OFFSET 0.000000 3.130431 0.000000 
					CHANNELS 3 Xrotation Zrotation Yrotation
					End Site
					{
						OFFSET 0.000000 3.130435 0.000000 
					}
				}
			}
			JOINT lCollar
			{
				OFFSET 3.470700 6.669187 -0.816635 
				CHANNELS 3 Yrotation Zrotation Xrotation
				JOINT lShldr
				{
					OFFSET 3.198488 0.000000 0.000000 
					CHANNELS 3 Zrotation Yrotation Xrotation
					JOINT lForeArm
					{
						OFFSET 10.139888 0.000000 0.000000 
						CHANNELS 3 Yrotation Zrotation Xrotation
						JOINT lHand
						{
							OFFSET 8.370511 0.000000 0.000000 
							CHANNELS 3 Zrotation Yrotation Xrotation
							End Site
							{
								OFFSET 4.083176 0.000000 0.000000 
							}
						}
					}
				}
			}
			JOINT rCollar
			{
				OFFSET -3.470700 6.669187 -0.816635 
				CHANNELS 3 Yrotation Zrotation Xrotation
				JOINT rShldr
				{
					OFFSET -3.198488 0.000000 0.000000 
					CHANNELS 3 Zrotation Yrotation Xrotation
					JOINT rForeArm
					{
						OFFSET -10.139888 0.000000 0.000000 
						CHANNELS 3 Yrotation Zrotation Xrotation
						JOINT rHand
						{
							OFFSET -8.370511 0.000000 0.000000 
							CHANNELS 3 Zrotation Yrotation Xrotation
							End Site
							{
								OFFSET -4.083176 0.000000 0.000000 
							}
						}
					}
				}
			}
		}
	}
	JOINT lThigh
	{
		OFFSET 5.308129 -1.633274 1.361059 
		CHANNELS 3 Xrotation Zrotation Yrotation
		JOINT lShin
		{
			OFFSET -2.041588 -20.007561 0.000000 
			CHANNELS 3 Xrotation Zrotation Yrotation
			JOINT lFoot
			{
				OFFSET 0.000000 -19.190928 -1.224953 
				CHANNELS 3 Xrotation Yrotation Zrotation
				End Site
				{
					OFFSET 0.000000 -2.449906 4.627600 
				}
			}
		}
	}
	JOINT rThigh
	{
		OFFSET -5.308129 -1.633274 1.361059 
		CHANNELS 3 Xrotation Zrotation Yrotation
		JOINT rShin
		{
			OFFSET 2.041588 -20.007561 0.000000 
			CHANNELS 3 Xrotation Zrotation Yrotation
			JOINT rFoot
			{
				OFFSET 0.000000 -19.190928 -1.224953 
				CHANNELS 3 Xrotation Yrotation Zrotation
				End Site
				{
					OFFSET 0.000000 -2.449906 4.627600 
				}
			}
		}
	}
}
MOTION
Frames: 13
Frame Time: 0.033333
0.031301 42.820229 0.400122 0.449219 0.185547 85.947296 34.020378 -17.096678 -1.394333 -4.257813 2.177735 10.410528 12.667531 4.685634 0.287800 -10.791017 -1.298828 -16.787113 2.000000 -2.000000 0.000000 -81.435547 -1.542969 1.523176 -37.723991 6.489137 14.828298 -3.930502 9.316327 50.393059 -2.000000 2.000000 0.000000 53.203125 -8.144532 62.441406 28.555222 -24.234900 7.123059 27.276731 0.410133 -9.567761 10.481805 6.550590 19.215313 57.056293 2.450614 -1.887806 2.396088 6.446246 -20.566185 -8.489035 -0.097751 1.355858 26.364870 1.840062 1.763166 -9.913596 -11.994898 22.470758 
-0.015878 42.829811 0.747301 -0.595703 0.771486 86.474739 34.020378 -17.096678 -1.394333 -3.212890 2.919922 10.723154 12.308868 4.457725 0.282746 -10.732424 -0.986328 -17.158205 2.000000 -2.000000 0.000000 -81.738281 -0.527344 0.771394 -36.268150 7.703804 13.772244 -3.627635 10.047268 50.473270 -2.000000 2.000000 0.000000 52.744141 -6.894532 62.664848 29.821293 -25.061916 6.883226 26.626656 0.193681 -9.621075 5.613267 8.865342 20.183784 64.583633 5.280844 -1.530823 5.637496 5.970972 -19.303917 -6.207883 1.522670 1.775559 26.502520 1.478737 1.702670 -11.284575 -13.580541 21.814266 
-0.128721 42.854332 0.986039 -1.054688 1.259766 86.640625 34.020378 -17.096678 -1.394333 -2.255859 3.242188 10.928286 12.072173 3.737715 0.224386 -10.830078 -0.595703 -17.060678 2.000000 -2.000000 0.000000 -81.972656 0.878906 -0.761719 -35.068771 8.489871 11.973601 -2.420062 10.530560 50.791706 -2.000000 2.000000 0.000000 52.041019 -5.322266 63.446358 31.080284 -26.129766 7.054128 26.057726 0.082129 -9.611803 1.015101 10.077332 20.621765 69.734924 7.368678 -1.215553 6.955816 5.837383 -18.511040 -4.266284 2.470684 1.975013 26.683456 1.156304 1.632545 -12.356285 -14.775615 21.685957 
-0.291936 42.892899 1.101883 -0.849609 1.494144 86.523682 34.020378 -17.096678 -1.394333 -1.611329 3.144531 10.986328 12.032652 2.568589 0.134972 -11.025391 -0.078125 -16.552750 2.000000 -2.000000 0.000000 -82.060547 2.822266 -2.744141 -34.392349 8.822719 9.646482 -0.915339 10.868265 51.178684 -2.000000 2.000000 0.000000 51.083981 -3.369141 64.570313 32.257099 -27.244200 7.813735 25.902784 0.125362 -9.502854 -3.359505 10.294688 20.550488 72.040085 8.159085 -1.119132 7.010389 5.939224 -18.089905 -2.672276 2.583867 1.992514 26.789476 0.916592 1.585511 -13.463368 -15.341324 21.644279 
-0.469711 42.951805 1.143046 -0.410156 1.484377 86.123299 34.020378 -17.096678 -1.394333 -1.347656 2.919922 10.977061 12.175860 1.210137 0.034210 -11.054688 0.576172 -15.761719 2.000000 -2.000000 0.000000 -82.060547 5.253906 -4.912110 -34.065094 9.001016 7.332495 -0.134519 11.013557 51.365555 -2.000000 2.000000 0.000000 50.029293 -1.123047 65.693359 33.270523 -28.107288 8.925967 26.154684 0.421439 -9.294587 -7.185849 10.062484 20.301651 71.395561 7.648762 -1.216491 6.129149 6.296798 -18.046474 -1.179184 2.329687 1.847811 26.553631 0.570584 1.508984 -14.615232 -15.271859 21.700089 
-0.630490 43.044895 1.155446 0.058594 1.464844 85.703377 34.020378 -17.096678 -1.394333 -1.181640 2.646484 10.947716 12.412106 0.071402 -0.050310 -10.917969 1.074219 -15.019350 2.000000 -2.000000 0.000000 -81.923828 7.744140 -6.865234 -33.818012 9.126435 5.245643 -0.018683 11.208748 51.368584 -2.000000 2.000000 0.000000 49.150394 1.064453 66.572449 34.018932 -28.732071 10.139889 26.638315 0.974904 -9.006106 -10.016927 9.760124 19.968719 67.957222 6.174950 -1.442092 4.981565 6.987422 -18.045361 0.536303 2.008291 1.721453 25.964426 0.200152 1.365329 -15.634493 -14.943911 22.017679 
-0.775485 43.161865 1.160773 0.195313 1.445312 85.293213 34.020378 -17.096678 -1.394333 -1.064452 2.617188 10.957478 12.694619 -0.757780 -0.112518 -10.791016 1.416016 -14.521484 2.000000 -2.000000 0.000000 -81.689453 9.746094 -8.328425 -33.362099 9.352590 3.506656 -0.143559 11.521380 51.248989 -2.000000 2.000000 0.000000 48.447266 3.037110 67.158722 34.599464 -29.247526 11.164588 27.139771 1.449518 -8.765247 -11.840761 9.620490 19.797262 62.218708 4.173809 -1.745085 3.788341 7.955466 -17.935492 2.449948 1.971739 1.636211 24.951948 -0.170739 1.180282 -16.562687 -14.739321 22.177450 
-0.900808 43.275425 1.161795 0.087891 1.279297 85.029297 34.020378 -17.096678 -1.394333 -1.103515 2.812500 10.986807 12.937321 -1.316030 -0.146591 -10.771485 1.669922 -14.218751 2.000000 -2.000000 0.000000 -81.376953 11.562499 -9.373042 -32.457947 9.958784 2.532423 -0.614774 11.932185 50.995369 -2.000000 2.000000 0.000000 47.939453 4.667969 67.431641 35.139408 -29.666203 11.901383 27.468218 1.665019 -8.631236 -12.849455 9.635425 19.703722 54.504387 1.745205 -1.968735 2.688428 8.897487 -17.379761 4.462107 2.197064 1.673201 23.737795 -0.541456 1.024456 -17.428164 -14.876880 22.304064 
-0.990491 43.359016 1.154717 -0.146484 1.044922 84.833984 34.020378 -17.096678 -1.394333 -1.289062 3.056641 11.016145 13.063143 -1.627043 -0.178564 -10.742187 1.884766 -14.052415 2.000000 -2.000000 0.000000 -80.986328 13.173827 -10.087891 -31.023996 10.944771 2.333898 -1.451259 12.324535 50.587284 -2.000000 2.000000 0.000000 47.597656 5.947265 67.509766 35.646465 -30.018402 12.358521 27.577547 1.730324 -8.557283 -12.976394 9.606169 19.662687 45.313034 -0.762094 -2.109381 1.948632 9.326517 -16.292835 6.656088 2.518430 1.717797 22.216883 -0.954680 0.752506 -18.187723 -15.031045 22.716406 
-1.014691 43.403786 1.120036 -0.302734 1.083984 84.697266 34.020378 -17.096678 -1.394333 -1.279297 3.154297 11.045460 13.101527 -1.787377 -0.193823 -10.693359 2.089844 -13.945314 2.000000 -2.000000 0.000000 -80.527344 14.531251 -10.603017 -29.254473 12.019193 2.626685 -2.344844 12.688515 50.143414 -2.000000 2.000000 0.000000 47.441406 6.962891 67.490234 36.044338 -30.239580 12.598829 27.558020 1.730875 -8.548533 -11.967509 9.259279 19.649498 35.856960 -2.726651 -2.113224 1.680790 8.991936 -15.318995 9.265264 2.646225 1.719498 20.570309 -1.292480 0.578978 -18.914091 -15.100512 23.123888 
-0.972251 43.376648 1.041946 -0.410156 0.898438 84.316406 34.020378 -17.096678 -1.394333 -1.650389 3.330078 11.025958 13.129682 -2.026416 -0.207060 -10.683593 2.265625 -13.661725 2.000000 -2.000000 0.000000 -80.126953 15.917970 -11.188727 -27.581873 12.820412 3.092149 -3.121644 13.209083 49.743801 -2.000000 2.000000 0.000000 47.607422 7.900391 67.589233 35.997616 -30.376678 12.756441 27.561329 1.848016 -8.528689 -10.720709 8.824783 19.579277 27.673237 -3.892194 -1.893879 1.480584 8.213145 -14.381138 11.580582 2.646230 1.697942 19.142172 -1.613985 0.393951 -19.819620 -14.984675 23.380077 
-0.828377 43.284634 0.891459 -0.283203 0.781251 83.672005 34.020378 -17.096678 -1.394333 -2.187500 3.349610 10.957603 13.176411 -2.406476 -0.238491 -10.576173 2.480469 -13.134768 2.000000 -2.000000 0.000000 -79.814453 17.568359 -11.884766 -26.245085 13.320156 3.585443 -3.887734 13.769294 49.351154 -2.000000 2.000000 0.000000 47.646484 8.613282 67.813965 36.499126 -30.415451 13.208918 27.617983 1.778029 -8.515885 -9.413108 8.084230 19.424345 21.942627 -4.306560 -1.595374 1.165609 7.659000 -13.634747 13.940621 2.177420 1.506326 18.094456 -1.848786 0.267143 -20.959648 -14.741034 23.802801 
-0.593954 43.145794 0.673776 0.166016 0.888672 83.046875 34.020378 -17.096678 -1.394333 -2.724610 3.144531 10.839845 13.348954 -2.897127 -0.282362 -10.458984 2.744141 -12.714376 2.000000 -2.000000 0.000000 -79.687500 19.169922 -12.695313 -25.193203 13.628623 4.148904 -4.597007 14.046585 49.035561 -2.000000 2.000000 0.000000 47.685547 8.896484 68.095703 37.207630 -30.587223 13.907310 27.740757 1.628006 -8.538894 -8.242449 7.100058 19.152283 19.397345 -4.402856 -1.413015 0.449186 7.810224 -13.373199 16.408710 1.200735 1.239250 17.472034 -1.926157 0.144969 -22.199316 -14.627337 24.421673 
